<svg width="12" height="12" viewBox="0 0 12 12" fill="none" xmlns="http://www.w3.org/2000/svg">
<mask id="mask0_709_625" style="mask-type:alpha" maskUnits="userSpaceOnUse" x="0" y="0" width="12" height="12">
<rect width="12" height="12" fill="#D9D9D9"/>
</mask>
<g mask="url(#mask0_709_625)">
<path d="M6 10.5C4.74167 10.5 3.677 10.0645 2.806 9.19351C1.93533 8.32285 1.5 7.25835 1.5 6.00001C1.5 4.85001 1.875 3.85201 2.625 3.00601C3.375 2.16035 4.33333 1.66668 5.5 1.52501C5.70833 1.50001 5.87083 1.57501 5.9875 1.75001C6.10417 1.92501 6.1 2.10835 5.975 2.30001C5.83333 2.51668 5.727 2.74585 5.656 2.98751C5.58533 3.22918 5.55 3.48335 5.55 3.75001C5.55 4.50001 5.8125 5.13751 6.3375 5.66251C6.8625 6.18751 7.5 6.45001 8.25 6.45001C8.50833 6.45001 8.76467 6.41251 9.019 6.33751C9.273 6.26251 9.5 6.15835 9.7 6.02501C9.875 5.90835 10.0542 5.90201 10.2375 6.00601C10.4208 6.11035 10.5 6.27501 10.475 6.50001C10.3583 7.65001 9.86883 8.60418 9.0065 9.36251C8.14383 10.1208 7.14167 10.5 6 10.5Z" fill="white"/>
</g>
</svg>
