<svg width="12" height="12" viewBox="0 0 12 12" fill="none" xmlns="http://www.w3.org/2000/svg">
<mask id="mask0_709_622" style="mask-type:alpha" maskUnits="userSpaceOnUse" x="0" y="0" width="12" height="12">
<rect width="12" height="12" fill="#D9D9D9"/>
</mask>
<g mask="url(#mask0_709_622)">
<path d="M6 2C5.85833 2 5.73967 1.952 5.644 1.856C5.548 1.76033 5.5 1.64167 5.5 1.5V1C5.5 0.858333 5.548 0.7395 5.644 0.6435C5.73967 0.547833 5.85833 0.5 6 0.5C6.14167 0.5 6.2605 0.547833 6.3565 0.6435C6.45217 0.7395 6.5 0.858333 6.5 1V1.5C6.5 1.64167 6.45217 1.76033 6.3565 1.856C6.2605 1.952 6.14167 2 6 2ZM6 11.5C5.85833 11.5 5.73967 11.452 5.644 11.356C5.548 11.2603 5.5 11.1417 5.5 11V10.5C5.5 10.3583 5.548 10.2397 5.644 10.144C5.73967 10.048 5.85833 10 6 10C6.14167 10 6.2605 10.048 6.3565 10.144C6.45217 10.2397 6.5 10.3583 6.5 10.5V11C6.5 11.1417 6.45217 11.2603 6.3565 11.356C6.2605 11.452 6.14167 11.5 6 11.5ZM10.5 6.5C10.3583 6.5 10.2397 6.452 10.144 6.356C10.048 6.26033 10 6.14167 10 6C10 5.85833 10.048 5.7395 10.144 5.6435C10.2397 5.54783 10.3583 5.5 10.5 5.5H11C11.1417 5.5 11.2603 5.54783 11.356 5.6435C11.452 5.7395 11.5 5.85833 11.5 6C11.5 6.14167 11.452 6.26033 11.356 6.356C11.2603 6.452 11.1417 6.5 11 6.5H10.5ZM1 6.5C0.858333 6.5 0.739667 6.452 0.644 6.356C0.548 6.26033 0.5 6.14167 0.5 6C0.5 5.85833 0.548 5.7395 0.644 5.6435C0.739667 5.54783 0.858333 5.5 1 5.5H1.5C1.64167 5.5 1.7605 5.54783 1.8565 5.6435C1.95217 5.7395 2 5.85833 2 6C2 6.14167 1.95217 6.26033 1.8565 6.356C1.7605 6.452 1.64167 6.5 1.5 6.5H1ZM9 3C8.90833 2.90833 8.8625 2.79367 8.8625 2.656C8.8625 2.51867 8.90833 2.4 9 2.3L9.175 2.1125C9.26667 2.0125 9.38333 1.9625 9.525 1.9625C9.66667 1.9625 9.7875 2.0125 9.8875 2.1125C9.9875 2.2125 10.0375 2.33333 10.0375 2.475C10.0375 2.61667 9.9875 2.7375 9.8875 2.8375L9.7 3.0125C9.6 3.10417 9.48333 3.15 9.35 3.15C9.21667 3.15 9.1 3.1 9 3ZM2.1125 9.8875C2.0125 9.7875 1.9625 9.66667 1.9625 9.525C1.9625 9.38333 2.0125 9.2625 2.1125 9.1625L2.3 8.9875C2.4 8.89583 2.51667 8.85 2.65 8.85C2.78333 8.85 2.9 8.9 3 9C3.09167 9.09167 3.13967 9.20833 3.144 9.35C3.148 9.49167 3.1 9.60833 3 9.7L2.825 9.8875C2.73333 9.9875 2.61667 10.0375 2.475 10.0375C2.33333 10.0375 2.2125 9.9875 2.1125 9.8875ZM9.1625 9.8875L8.9875 9.7C8.89583 9.6 8.85 9.48333 8.85 9.35C8.85 9.21667 8.9 9.1 9 9C9.09167 8.90833 9.20833 8.86033 9.35 8.856C9.49167 8.852 9.60833 8.9 9.7 9L9.8875 9.175C9.9875 9.26667 10.0375 9.38333 10.0375 9.525C10.0375 9.66667 9.9875 9.7875 9.8875 9.8875C9.7875 9.9875 9.66667 10.0375 9.525 10.0375C9.38333 10.0375 9.2625 9.9875 9.1625 9.8875ZM2.3 3L2.1125 2.825C2.0125 2.73333 1.9625 2.61667 1.9625 2.475C1.9625 2.33333 2.0125 2.2125 2.1125 2.1125C2.2125 2.0125 2.33333 1.9625 2.475 1.9625C2.61667 1.9625 2.7375 2.0125 2.8375 2.1125L3.0125 2.3C3.10417 2.4 3.15 2.51667 3.15 2.65C3.15 2.78333 3.1 2.9 3 3C2.90833 3.09167 2.79367 3.1375 2.656 3.1375C2.51867 3.1375 2.4 3.09167 2.3 3ZM6 9C5.16667 9 4.45833 8.70833 3.875 8.125C3.29167 7.54167 3 6.83333 3 6C3 5.16667 3.29167 4.45833 3.875 3.875C4.45833 3.29167 5.16667 3 6 3C6.83333 3 7.54167 3.29167 8.125 3.875C8.70833 4.45833 9 5.16667 9 6C9 6.83333 8.70833 7.54167 8.125 8.125C7.54167 8.70833 6.83333 9 6 9Z" fill="white"/>
</g>
</svg>
