<svg width="16" height="16" viewBox="0 0 16 16" fill="none" xmlns="http://www.w3.org/2000/svg">
    <g clip-path="url(#clip0_930_58)">
        <path
            d="M0.653728 5.21059C1.095 5.21059 1.31563 4.98735 1.31563 4.54086V2.61335C1.31563 2.18865 1.42458 1.86875 1.64249 1.65368C1.8604 1.43861 2.17365 1.33107 2.58223 1.33107H4.55975C5.00647 1.33107 5.22983 1.11055 5.22983 0.669506C5.22983 0.233911 5.00647 0.0161133 4.55975 0.0161133H2.56589C1.71059 0.0161133 1.06912 0.227105 0.641471 0.649088C0.213824 1.07107 0 1.70132 0 2.53985V4.54086C0 4.98735 0.217909 5.21059 0.653728 5.21059ZM15.3381 5.21059C15.7794 5.21059 16 4.98735 16 4.54086V2.53985C16 1.70132 15.7862 1.07107 15.3585 0.649088C14.9309 0.227105 14.2894 0.0161133 13.4341 0.0161133H11.4321C10.9908 0.0161133 10.7702 0.233911 10.7702 0.669506C10.7702 1.11055 10.9908 1.33107 11.4321 1.33107H13.4096C13.8127 1.33107 14.1259 1.43861 14.3493 1.65368C14.5727 1.86875 14.6843 2.18865 14.6843 2.61335V4.54086C14.6843 4.98735 14.9023 5.21059 15.3381 5.21059ZM2.56589 15.9998H4.55975C5.00647 15.9998 5.22983 15.782 5.22983 15.3463C5.22983 14.9053 5.00647 14.6848 4.55975 14.6848H2.58223C2.17365 14.6848 1.8604 14.5773 1.64249 14.3622C1.42458 14.1471 1.31563 13.8272 1.31563 13.4025V11.475C1.31563 11.0285 1.095 10.8053 0.653728 10.8053C0.217909 10.8053 0 11.0285 0 11.475V13.4678C0 14.3118 0.213824 14.9448 0.641471 15.3668C1.06912 15.7888 1.71059 15.9998 2.56589 15.9998ZM11.4321 15.9998H13.4341C14.2894 15.9998 14.9309 15.7888 15.3585 15.3668C15.7862 14.9448 16 14.3118 16 13.4678V11.475C16 11.0285 15.7794 10.8053 15.3381 10.8053C14.9023 10.8053 14.6843 11.0285 14.6843 11.475V13.4025C14.6843 13.8272 14.5727 14.1471 14.3493 14.3622C14.1259 14.5773 13.8127 14.6848 13.4096 14.6848H11.4321C10.9908 14.6848 10.7702 14.9053 10.7702 15.3463C10.7702 15.782 10.9908 15.9998 11.4321 15.9998ZM8.00817 3.02989C7.50153 3.02989 7.04392 3.15104 6.63534 3.39334C6.22676 3.63564 5.90126 3.96098 5.65884 4.36935C5.41641 4.77772 5.29519 5.22965 5.29519 5.72513C5.29519 6.3023 5.45182 6.81957 5.76507 7.27694C6.07831 7.73432 6.49642 8.06646 7.0194 8.27337V12.4551C7.02485 12.5585 7.06844 12.6484 7.15015 12.7246L7.85291 13.4352C7.89649 13.4788 7.94552 13.5019 8 13.5046C8.05447 13.5073 8.1035 13.4842 8.14709 13.4352L9.49544 12.1039C9.54442 12.0549 9.56891 12.0018 9.56891 11.9446C9.56891 11.8875 9.54442 11.8398 9.49544 11.8017L8.66193 10.9605L9.81408 9.82514C9.85765 9.78706 9.87673 9.73942 9.87132 9.68221C9.86585 9.62506 9.84133 9.57471 9.79776 9.53117L8.66193 8.38772C9.32108 8.12091 9.82772 7.75746 10.1818 7.29737C10.5359 6.83727 10.7129 6.31319 10.7129 5.72513C10.7129 5.22965 10.5904 4.77772 10.3453 4.36935C10.1001 3.96098 9.77322 3.63564 9.36465 3.39334C8.95608 3.15104 8.50392 3.02989 8.00817 3.02989ZM8 4.32034C8.2288 4.32034 8.42356 4.40338 8.58428 4.56945C8.74499 4.73552 8.82535 4.9329 8.82535 5.16159C8.82535 5.39572 8.74499 5.59446 8.58428 5.75781C8.42356 5.92115 8.2288 6.00283 8 6.00283C7.77119 6.00283 7.57371 5.92115 7.40756 5.75781C7.2414 5.59446 7.15833 5.39572 7.15833 5.16159C7.15833 4.9329 7.24004 4.73552 7.40347 4.56945C7.5669 4.40338 7.76574 4.32034 8 4.32034Z"
            fill="white" />
    </g>
    <defs>
        <clipPath id="clip0_930_58">
            <rect width="16" height="16" fill="white" />
        </clipPath>
    </defs>
</svg>